<svg width="954" height="305" viewBox="0 0 954 305" fill="none" xmlns="http://www.w3.org/2000/svg">
<path d="M933.5 233C933.5 234.884 932.567 237.291 929.569 240.116C926.56 242.953 921.883 245.783 915.604 248.286C903.081 253.279 885.369 256.5 865.5 256.5C845.631 256.5 827.919 253.279 815.396 248.286C809.117 245.783 804.44 242.953 801.431 240.116C798.433 237.291 797.5 234.884 797.5 233C797.5 231.116 798.433 228.709 801.431 225.884C804.44 223.047 809.117 220.217 815.396 217.714C827.919 212.721 845.631 209.5 865.5 209.5C885.369 209.5 903.081 212.721 915.604 217.714C921.883 220.217 926.56 223.047 929.569 225.884C932.567 228.709 933.5 231.116 933.5 233Z" stroke="#1C8AF0" stroke-width="12"/>
<path d="M109.725 191.869C109.725 188.992 109.301 186.41 108.455 184.125C107.609 181.755 106.043 179.555 103.758 177.523C101.473 175.492 98.1719 173.461 93.8555 171.43C89.6237 169.314 84.0378 167.113 77.0977 164.828C68.9727 162.12 61.1439 159.073 53.6113 155.688C46.0788 152.217 39.3503 148.197 33.4258 143.627C27.5013 138.972 22.804 133.555 19.334 127.377C15.8639 121.114 14.1289 113.835 14.1289 105.541C14.1289 97.5853 15.9062 90.4336 19.4609 84.0859C23.0156 77.6536 27.9668 72.1947 34.3145 67.709C40.7467 63.1387 48.2793 59.6686 56.9121 57.2988C65.5449 54.8444 74.9818 53.6172 85.2227 53.6172C98.7643 53.6172 110.698 55.987 121.023 60.7266C131.434 65.3815 139.559 72.0254 145.398 80.6582C151.323 89.2064 154.285 99.3203 154.285 111H109.979C109.979 106.345 109.005 102.24 107.059 98.6855C105.197 95.1309 102.361 92.3379 98.5527 90.3066C94.7441 88.2754 89.9622 87.2598 84.207 87.2598C78.6211 87.2598 73.9238 88.1061 70.1152 89.7988C66.3066 91.4915 63.429 93.7767 61.4824 96.6543C59.5358 99.4473 58.5625 102.536 58.5625 105.922C58.5625 108.715 59.3242 111.254 60.8477 113.539C62.4557 115.74 64.6986 117.813 67.5762 119.76C70.5384 121.706 74.0931 123.568 78.2402 125.346C82.472 127.123 87.2116 128.858 92.459 130.551C102.277 133.682 110.994 137.195 118.611 141.088C126.313 144.896 132.788 149.255 138.035 154.164C143.367 158.988 147.387 164.49 150.096 170.668C152.889 176.846 154.285 183.829 154.285 191.615C154.285 199.91 152.677 207.273 149.461 213.705C146.245 220.137 141.632 225.596 135.623 230.082C129.614 234.483 122.42 237.826 114.041 240.111C105.662 242.396 96.3099 243.539 85.9844 243.539C76.5052 243.539 67.153 242.354 57.9277 239.984C48.7871 237.53 40.4928 233.806 33.0449 228.812C25.597 223.734 19.6302 217.26 15.1445 209.389C10.7435 201.433 8.54297 191.996 8.54297 181.078H53.2305C53.2305 186.495 53.9499 191.065 55.3887 194.789C56.8275 198.513 58.9434 201.518 61.7363 203.803C64.5293 206.003 67.957 207.611 72.0195 208.627C76.082 209.558 80.737 210.023 85.9844 210.023C91.6549 210.023 96.2253 209.219 99.6953 207.611C103.165 205.919 105.704 203.718 107.312 201.01C108.921 198.217 109.725 195.17 109.725 191.869ZM246.58 206.469V149.848C246.58 145.954 246.03 142.611 244.93 139.818C243.829 137.025 242.094 134.867 239.725 133.344C237.355 131.736 234.181 130.932 230.203 130.932C226.987 130.932 224.236 131.482 221.951 132.582C219.666 133.682 217.931 135.333 216.746 137.533C215.561 139.734 214.969 142.527 214.969 145.912H172.186C172.186 139.564 173.582 133.682 176.375 128.266C179.253 122.764 183.315 117.982 188.562 113.92C193.895 109.857 200.242 106.726 207.605 104.525C215.053 102.24 223.348 101.098 232.488 101.098C243.406 101.098 253.139 102.917 261.688 106.557C270.32 110.196 277.133 115.655 282.127 122.934C287.12 130.128 289.617 139.184 289.617 150.102V206.342C289.617 215.313 290.125 222.126 291.141 226.781C292.156 231.352 293.595 235.372 295.457 238.842V241H252.547C250.516 236.768 248.992 231.605 247.977 225.512C247.046 219.333 246.58 212.986 246.58 206.469ZM251.785 157.084L252.039 179.936H233.123C229.145 179.936 225.76 180.486 222.967 181.586C220.258 182.686 218.058 184.21 216.365 186.156C214.757 188.018 213.572 190.134 212.811 192.504C212.133 194.874 211.795 197.37 211.795 199.994C211.795 202.533 212.387 204.818 213.572 206.85C214.842 208.796 216.535 210.32 218.65 211.42C220.766 212.52 223.136 213.07 225.76 213.07C230.499 213.07 234.52 212.182 237.82 210.404C241.206 208.542 243.787 206.299 245.564 203.676C247.342 201.052 248.23 198.598 248.23 196.312L257.625 213.832C255.932 217.217 253.986 220.645 251.785 224.115C249.669 227.585 247.003 230.801 243.787 233.764C240.656 236.641 236.805 239.011 232.234 240.873C227.664 242.65 222.12 243.539 215.604 243.539C207.14 243.539 199.354 241.804 192.244 238.334C185.219 234.864 179.591 230.04 175.359 223.861C171.128 217.598 169.012 210.404 169.012 202.279C169.012 195.17 170.281 188.822 172.82 183.236C175.444 177.65 179.38 172.911 184.627 169.018C189.874 165.124 196.561 162.162 204.686 160.131C212.811 158.1 222.374 157.084 233.377 157.084H251.785ZM385.721 103.637V133.344H302.947V103.637H385.721ZM320.34 69.4863H363.123V196.186C363.123 199.825 363.546 202.66 364.393 204.691C365.239 206.638 366.678 208.035 368.709 208.881C370.825 209.643 373.618 210.023 377.088 210.023C379.542 210.023 381.574 209.981 383.182 209.896C384.79 209.727 386.313 209.516 387.752 209.262V239.857C384.113 241.042 380.304 241.931 376.326 242.523C372.348 243.201 368.117 243.539 363.631 243.539C354.49 243.539 346.661 242.1 340.145 239.223C333.712 236.345 328.803 231.817 325.418 225.639C322.033 219.46 320.34 211.42 320.34 201.518V69.4863ZM482.967 207.611V103.637H525.877V241H485.76L482.967 207.611ZM487.029 179.682L498.201 179.428C498.201 188.653 497.101 197.201 494.9 205.072C492.7 212.859 489.441 219.63 485.125 225.385C480.893 231.14 475.646 235.626 469.383 238.842C463.204 241.973 456.053 243.539 447.928 243.539C441.157 243.539 434.936 242.608 429.266 240.746C423.68 238.799 418.855 235.795 414.793 231.732C410.73 227.585 407.557 222.296 405.271 215.863C403.071 209.346 401.971 201.56 401.971 192.504V103.637H444.754V192.758C444.754 195.805 445.135 198.428 445.896 200.629C446.658 202.829 447.758 204.691 449.197 206.215C450.636 207.654 452.413 208.754 454.529 209.516C456.73 210.193 459.227 210.531 462.02 210.531C468.452 210.531 473.488 209.177 477.127 206.469C480.766 203.76 483.305 200.079 484.744 195.424C486.268 190.769 487.029 185.521 487.029 179.682ZM592.654 137.66V241H549.871V103.637H589.861L592.654 137.66ZM633.279 102.621L632.518 142.357C630.825 142.188 628.54 141.977 625.662 141.723C622.785 141.469 620.372 141.342 618.426 141.342C613.432 141.342 609.116 141.934 605.477 143.119C601.922 144.219 598.96 145.912 596.59 148.197C594.305 150.398 592.612 153.191 591.512 156.576C590.496 159.962 590.031 163.897 590.115 168.383L582.371 163.305C582.371 154.079 583.26 145.701 585.037 138.168C586.899 130.551 589.523 123.992 592.908 118.49C596.294 112.904 600.398 108.63 605.223 105.668C610.047 102.621 615.464 101.098 621.473 101.098C623.589 101.098 625.662 101.225 627.693 101.479C629.809 101.732 631.671 102.113 633.279 102.621ZM690.027 132.963V241H647.244V103.637H687.361L690.027 132.963ZM684.949 167.621L674.92 167.875C674.92 157.38 676.189 148.028 678.729 139.818C681.268 131.524 684.865 124.499 689.52 118.744C694.174 112.989 699.718 108.63 706.15 105.668C712.667 102.621 719.904 101.098 727.859 101.098C734.207 101.098 740.005 102.029 745.252 103.891C750.584 105.753 755.154 108.757 758.963 112.904C762.856 117.051 765.818 122.553 767.85 129.408C769.965 136.179 771.023 144.558 771.023 154.545V241H727.986V154.418C727.986 148.917 727.225 144.727 725.701 141.85C724.178 138.887 721.977 136.856 719.1 135.756C716.222 134.656 712.71 134.105 708.562 134.105C704.161 134.105 700.438 134.952 697.391 136.645C694.344 138.337 691.889 140.707 690.027 143.754C688.25 146.716 686.938 150.229 686.092 154.291C685.33 158.354 684.949 162.797 684.949 167.621ZM866.238 199.994L907.371 56.1562H953.455L890.105 241H860.018L866.238 199.994ZM828.787 56.1562L869.793 199.994L876.268 241H845.799L782.83 56.1562H828.787Z" fill="#1C8AF0"/>
</svg>
