<svg width="17" height="17" viewBox="0 0 17 17" fill="none" xmlns="http://www.w3.org/2000/svg">
<circle cx="8.47461" cy="8.47501" r="8" fill="white"/>
<path d="M11.5892 12.19C11.5892 12.2447 11.5631 12.3356 11.4328 12.4583C11.3016 12.5818 11.0916 12.7104 10.8007 12.8264C10.2211 13.0575 9.39419 13.2089 8.46159 13.2089C7.529 13.2089 6.70208 13.0575 6.12252 12.8264C5.83156 12.7104 5.62163 12.5818 5.49037 12.4583C5.36005 12.3356 5.33398 12.2447 5.33398 12.19C5.33398 12.1354 5.36005 12.0445 5.49037 11.9218C5.62163 11.7983 5.83156 11.6697 6.12252 11.5537C6.70208 11.3226 7.529 11.1712 8.46159 11.1712C9.39419 11.1712 10.2211 11.3226 10.8007 11.5537C11.0916 11.6697 11.3016 11.7983 11.4328 11.9218C11.5631 12.0445 11.5892 12.1354 11.5892 12.19Z" stroke="#1C8AF0" stroke-width="0.476249"/>
<path d="M8.39111 10.5549L10.3402 3.73869H12.5243L9.52226 12.4981H8.09636L8.39111 10.5549ZM6.61643 3.73869L8.55933 10.5549L8.86641 12.4981H7.4225L4.43848 3.73869H6.61643Z" fill="#1C8AF0"/>
</svg>
