<svg width="20" height="20" viewBox="0 0 20 20" fill="none" xmlns="http://www.w3.org/2000/svg">
<circle cx="10" cy="10" r="10" fill="#111111"/>
<path d="M10.0436 15.4493C9.08344 15.4493 8.29992 15.2976 7.69304 14.9941C7.08616 14.6907 6.78271 14.2989 6.78271 13.8188C6.78271 13.5018 6.91406 13.2255 7.17674 12.99C7.43942 12.7545 7.80174 12.5688 8.26369 12.433L8.57619 13.4656C8.42221 13.5109 8.28181 13.5675 8.155 13.6354C8.02819 13.7034 7.94214 13.7645 7.89685 13.8188C8.0146 13.9638 8.28634 14.0906 8.71206 14.1993C9.13779 14.308 9.58163 14.3623 10.0436 14.3623C10.5055 14.3623 10.9516 14.308 11.3819 14.1993C11.8122 14.0906 12.0862 13.9638 12.2039 13.8188C12.1586 13.7645 12.0726 13.7034 11.9458 13.6354C11.8189 13.5675 11.6785 13.5109 11.5246 13.4656L11.8371 12.433C12.299 12.5688 12.6591 12.7545 12.9172 12.99C13.1754 13.2255 13.3045 13.5018 13.3045 13.8188C13.3045 14.2989 13.001 14.6907 12.3941 14.9941C11.7872 15.2976 11.0037 15.4493 10.0436 15.4493ZM10.0436 11.8216C10.2066 11.5226 10.3787 11.2486 10.5599 10.9995C10.741 10.7505 10.9177 10.5127 11.0898 10.2862C11.4249 9.85145 11.6921 9.45969 11.8914 9.11096C12.0907 8.76223 12.1903 8.32971 12.1903 7.81341C12.1903 7.21558 11.982 6.70834 11.5653 6.29167C11.1487 5.875 10.6414 5.66667 10.0436 5.66667C9.44576 5.66667 8.93851 5.875 8.52185 6.29167C8.10518 6.70834 7.89685 7.21558 7.89685 7.81341C7.89685 8.32971 7.99648 8.76223 8.19576 9.11096C8.39503 9.45969 8.66224 9.85145 8.99739 10.2862C9.16949 10.5127 9.34612 10.7505 9.52728 10.9995C9.70844 11.2486 9.88054 11.5226 10.0436 11.8216ZM10.0436 13.8188C9.94395 13.8188 9.85337 13.7894 9.77185 13.7305C9.69032 13.6717 9.63145 13.5924 9.59521 13.4928C9.38688 12.8496 9.1242 12.3107 8.80717 11.8759C8.49014 11.4411 8.18217 11.0245 7.88326 10.6259C7.5934 10.2274 7.34204 9.81522 7.12918 9.38949C6.91632 8.96377 6.80989 8.43841 6.80989 7.81341C6.80989 6.90761 7.12239 6.14221 7.74739 5.51721C8.37239 4.89221 9.13779 4.57971 10.0436 4.57971C10.9494 4.57971 11.7148 4.89221 12.3398 5.51721C12.9648 6.14221 13.2773 6.90761 13.2773 7.81341C13.2773 8.43841 13.1731 8.96377 12.9648 9.38949C12.7564 9.81522 12.5028 10.2274 12.2039 10.6259C11.9141 11.0245 11.6083 11.4411 11.2868 11.8759C10.9652 12.3107 10.7003 12.8496 10.492 13.4928C10.4557 13.5924 10.3968 13.6717 10.3153 13.7305C10.2338 13.7894 10.1432 13.8188 10.0436 13.8188ZM10.0436 8.9683C10.3606 8.9683 10.6324 8.85507 10.8588 8.62862C11.0853 8.40218 11.1985 8.13044 11.1985 7.81341C11.1985 7.49638 11.0853 7.22464 10.8588 6.99819C10.6324 6.77174 10.3606 6.65852 10.0436 6.65852C9.72656 6.65852 9.45482 6.77174 9.22837 6.99819C9.00192 7.22464 8.88869 7.49638 8.88869 7.81341C8.88869 8.13044 9.00192 8.40218 9.22837 8.62862C9.45482 8.85507 9.72656 8.9683 10.0436 8.9683Z" fill="white"/>
</svg>
