<svg width="950" height="305" viewBox="0 0 950 305" fill="none" xmlns="http://www.w3.org/2000/svg">
<path d="M931.5 233C931.5 234.884 930.567 237.291 927.569 240.116C924.56 242.953 919.883 245.783 913.604 248.286C901.081 253.279 883.369 256.5 863.5 256.5C843.631 256.5 825.919 253.279 813.396 248.286C807.117 245.783 802.44 242.953 799.431 240.116C796.433 237.291 795.5 234.884 795.5 233C795.5 231.116 796.433 228.709 799.431 225.884C802.44 223.047 807.117 220.217 813.396 217.714C825.919 212.721 843.631 209.5 863.5 209.5C883.369 209.5 901.081 212.721 913.604 217.714C919.883 220.217 924.56 223.047 927.569 225.884C930.567 228.709 931.5 231.116 931.5 233Z" stroke="#1C8AF0" stroke-width="12"/>
<path d="M111.406 192.25C111.406 189.118 110.941 186.326 110.01 183.871C109.079 181.332 107.386 179.005 104.932 176.889C102.477 174.773 99.0072 172.657 94.5215 170.541C90.0358 168.34 84.1536 166.098 76.875 163.812C68.5807 161.104 60.6673 158.057 53.1348 154.672C45.6868 151.202 39.043 147.182 33.2031 142.611C27.3633 138.041 22.7507 132.709 19.3652 126.615C16.0645 120.521 14.4141 113.412 14.4141 105.287C14.4141 97.416 16.1491 90.3066 19.6191 83.959C23.0892 77.6113 27.9557 72.1947 34.2188 67.709C40.4818 63.1387 47.8451 59.6686 56.3086 57.2988C64.7721 54.8444 74.082 53.6172 84.2383 53.6172C97.7799 53.6172 109.671 56.0293 119.912 60.8535C130.238 65.5931 138.278 72.2793 144.033 80.9121C149.788 89.4603 152.666 99.4049 152.666 110.746H111.533C111.533 105.753 110.475 101.352 108.359 97.543C106.328 93.6497 103.197 90.6029 98.9648 88.4023C94.8177 86.2018 89.6126 85.1016 83.3496 85.1016C77.2559 85.1016 72.1354 86.0326 67.9883 87.8945C63.9258 89.6719 60.8366 92.1263 58.7207 95.2578C56.6895 98.3893 55.6738 101.817 55.6738 105.541C55.6738 108.503 56.4355 111.212 57.959 113.666C59.5671 116.036 61.8522 118.279 64.8145 120.395C67.8613 122.426 71.5853 124.372 75.9863 126.234C80.3874 128.096 85.4232 129.874 91.0938 131.566C100.996 134.698 109.756 138.168 117.373 141.977C125.075 145.785 131.549 150.102 136.797 154.926C142.044 159.75 145.98 165.209 148.604 171.303C151.312 177.396 152.666 184.294 152.666 191.996C152.666 200.206 151.058 207.484 147.842 213.832C144.71 220.18 140.14 225.596 134.131 230.082C128.206 234.483 121.097 237.826 112.803 240.111C104.508 242.396 95.2409 243.539 85 243.539C75.6901 243.539 66.5072 242.354 57.4512 239.984C48.3952 237.53 40.1855 233.806 32.8223 228.812C25.5436 223.819 19.7038 217.471 15.3027 209.77C10.9863 201.983 8.82812 192.758 8.82812 182.094H50.2148C50.2148 187.68 51.0189 192.419 52.627 196.312C54.235 200.121 56.5202 203.21 59.4824 205.58C62.5293 207.95 66.2109 209.643 70.5273 210.658C74.8438 211.674 79.668 212.182 85 212.182C91.1784 212.182 96.1719 211.335 99.9805 209.643C103.874 207.865 106.751 205.453 108.613 202.406C110.475 199.359 111.406 195.974 111.406 192.25ZM247.754 208.246V149.34C247.754 145.193 247.119 141.638 245.85 138.676C244.58 135.714 242.591 133.386 239.883 131.693C237.174 130.001 233.662 129.154 229.346 129.154C225.706 129.154 222.533 129.789 219.824 131.059C217.201 132.328 215.169 134.148 213.73 136.518C212.376 138.887 211.699 141.807 211.699 145.277H172.09C172.09 139.099 173.486 133.344 176.279 128.012C179.072 122.68 183.05 117.982 188.213 113.92C193.46 109.857 199.723 106.726 207.002 104.525C214.281 102.24 222.448 101.098 231.504 101.098C242.253 101.098 251.816 102.917 260.195 106.557C268.659 110.111 275.345 115.486 280.254 122.68C285.163 129.789 287.617 138.76 287.617 149.594V207.104C287.617 215.398 288.083 221.915 289.014 226.654C290.029 231.309 291.468 235.372 293.33 238.842V241H253.34C251.478 237.022 250.081 232.113 249.15 226.273C248.219 220.349 247.754 214.34 247.754 208.246ZM252.705 157.211L252.959 179.047H233.281C228.88 179.047 225.072 179.597 221.855 180.697C218.724 181.798 216.185 183.321 214.238 185.268C212.292 187.13 210.853 189.33 209.922 191.869C209.076 194.324 208.652 197.032 208.652 199.994C208.652 202.787 209.329 205.326 210.684 207.611C212.038 209.812 213.9 211.547 216.27 212.816C218.639 214.086 221.39 214.721 224.521 214.721C229.684 214.721 234.085 213.705 237.725 211.674C241.449 209.643 244.326 207.188 246.357 204.311C248.389 201.348 249.404 198.598 249.404 196.059L258.926 212.562C257.402 215.948 255.54 219.46 253.34 223.1C251.139 226.654 248.346 229.997 244.961 233.129C241.576 236.176 237.471 238.673 232.646 240.619C227.907 242.566 222.194 243.539 215.508 243.539C206.875 243.539 199.046 241.804 192.021 238.334C184.997 234.779 179.368 229.913 175.137 223.734C170.99 217.556 168.916 210.447 168.916 202.406C168.916 195.212 170.228 188.822 172.852 183.236C175.475 177.65 179.411 172.911 184.658 169.018C189.99 165.124 196.676 162.204 204.717 160.258C212.757 158.227 222.152 157.211 232.9 157.211H252.705ZM383.467 103.637V131.439H301.963V103.637H383.467ZM320.625 69.6133H360.361V197.963C360.361 201.771 360.827 204.691 361.758 206.723C362.689 208.754 364.212 210.193 366.328 211.039C368.444 211.801 371.152 212.182 374.453 212.182C376.823 212.182 378.854 212.097 380.547 211.928C382.24 211.758 383.805 211.547 385.244 211.293V239.984C381.859 241.085 378.262 241.931 374.453 242.523C370.645 243.201 366.497 243.539 362.012 243.539C353.464 243.539 346.058 242.143 339.795 239.35C333.617 236.557 328.877 232.156 325.576 226.146C322.275 220.053 320.625 212.139 320.625 202.406V69.6133ZM483.125 207.865V103.637H522.988V241H485.664L483.125 207.865ZM487.314 179.809L498.232 179.555C498.232 188.78 497.132 197.286 494.932 205.072C492.816 212.859 489.6 219.63 485.283 225.385C481.051 231.14 475.762 235.626 469.414 238.842C463.151 241.973 455.83 243.539 447.451 243.539C440.68 243.539 434.46 242.608 428.789 240.746C423.203 238.799 418.379 235.795 414.316 231.732C410.254 227.585 407.122 222.296 404.922 215.863C402.721 209.346 401.621 201.56 401.621 192.504V103.637H441.23V192.758C441.23 196.312 441.654 199.359 442.5 201.898C443.431 204.353 444.658 206.384 446.182 207.992C447.79 209.6 449.736 210.785 452.021 211.547C454.391 212.309 456.973 212.689 459.766 212.689C466.79 212.689 472.292 211.251 476.27 208.373C480.332 205.411 483.167 201.475 484.775 196.566C486.468 191.573 487.314 185.987 487.314 179.809ZM588.496 135.629V241H548.887V103.637H586.084L588.496 135.629ZM629.502 102.621L628.867 139.564C627.174 139.311 624.974 139.099 622.266 138.93C619.557 138.676 617.23 138.549 615.283 138.549C610.205 138.549 605.804 139.184 602.08 140.453C598.441 141.638 595.394 143.415 592.939 145.785C590.57 148.155 588.792 151.117 587.607 154.672C586.423 158.142 585.83 162.162 585.83 166.732L578.34 163.051C578.34 153.995 579.229 145.701 581.006 138.168C582.783 130.635 585.365 124.118 588.75 118.617C592.135 113.031 596.283 108.715 601.191 105.668C606.1 102.621 611.686 101.098 617.949 101.098C619.98 101.098 622.054 101.225 624.17 101.479C626.286 101.732 628.063 102.113 629.502 102.621ZM684.6 132.963V241H644.863V103.637H682.188L684.6 132.963ZM679.395 167.494L669.492 167.748C669.492 157.423 670.762 148.155 673.301 139.945C675.84 131.736 679.437 124.753 684.092 118.998C688.831 113.158 694.46 108.715 700.977 105.668C707.578 102.621 714.857 101.098 722.812 101.098C729.245 101.098 735.127 102.029 740.459 103.891C745.791 105.753 750.361 108.757 754.17 112.904C758.063 116.967 761.025 122.383 763.057 129.154C765.088 135.84 766.104 144.092 766.104 153.91V241H726.24V153.783C726.24 148.028 725.436 143.585 723.828 140.453C722.22 137.322 719.85 135.121 716.719 133.852C713.672 132.582 709.948 131.947 705.547 131.947C700.892 131.947 696.914 132.878 693.613 134.74C690.312 136.518 687.604 139.014 685.488 142.23C683.372 145.447 681.807 149.213 680.791 153.529C679.86 157.846 679.395 162.501 679.395 167.494ZM862.334 199.994L903.467 56.1562H949.551L886.201 241H856.113L862.334 199.994ZM824.883 56.1562L865.889 199.994L872.363 241H841.895L778.926 56.1562H824.883Z" fill="#1C8AF0"/>
</svg>
